<svg id="Capa_1" enable-background="new 0 0 512 512" height="512" viewBox="0 0 512 512" width="512" xmlns="http://www.w3.org/2000/svg"><g><path d="m512 392c0-33.084-26.916-60-60-60s-60 26.916-60 60c-33.084 0-60 26.916-60 60s26.916 60 60 60c10.573 0 20.898-2.854 30-8.184 9.102 5.33 19.427 8.184 30 8.184 33.084 0 60-26.916 60-60 0-10.574-2.854-20.898-8.185-30 5.331-9.102 8.185-19.426 8.185-30z"/><path d="m345 180c8.284 0 15-6.716 15-15s-6.716-15-15-15h-15c0-21.867-12.028-41.634-30.537-52.081.357-2.624.537-5.266.537-7.919 0-33.084-26.916-60-60-60-2.652 0-5.295.18-7.919.537-10.447-18.508-30.214-30.537-52.081-30.537s-41.634 12.029-52.081 30.537c-2.624-.357-5.267-.537-7.919-.537-33.084 0-60 26.916-60 60 0 2.653.18 5.295.537 7.919-18.509 10.446-30.537 30.214-30.537 52.081h-15c-8.284 0-15 6.716-15 15s6.716 15 15 15zm-196.82-91.82c8.5-8.499 19.8-13.18 31.82-13.18s23.32 4.681 31.82 13.18c5.858 5.858 5.858 15.355 0 21.213-2.929 2.929-6.768 4.394-10.607 4.394s-7.677-1.464-10.606-4.393c-2.834-2.834-6.601-4.394-10.607-4.394s-7.773 1.56-10.607 4.394c-5.858 5.858-15.355 5.857-21.213-.001s-5.858-15.356 0-21.213z"/><path d="m34.005 210 26.056 288.35c.698 7.73 7.178 13.65 14.939 13.65h23.162l-13.644-302z"/><path d="m128.193 512h36.807v-302h-50.451z"/><path d="m195 512h36.807l13.644-302h-50.451z"/><path d="m261.838 512h23.162c7.761 0 14.24-5.92 14.939-13.65l26.056-288.35h-50.513z"/></g></svg>